{"images":[{"uri":"mat1_c.jpg","name":"mat1_c.jpg"},{"uri":"mat0_c.jpg","name":"mat0_c.jpg"}],"accessors":[{"componentType":5126,"bufferView":0,"count":1,"type":"SCALAR","byteOffset":0},{"componentType":5123,"bufferView":1,"count":139272,"type":"SCALAR","byteOffset":0},{"componentType":5123,"bufferView":1,"count":288,"type":"SCALAR","byteOffset":278544},{"componentType":5123,"bufferView":1,"count":100080,"type":"SCALAR","byteOffset":279120},{"componentType":5123,"bufferView":1,"count":312,"type":"SCALAR","byteOffset":479280},{"componentType":5126,"max":[0.02477138862013817,0.017880761995911598,0.036522042006254196],"bufferView":2,"count":34254,"type":"VEC3","min":[-0.09999999403953552,-0.016595276072621346,-0.020499393343925476],"byteOffset":0},{"componentType":5126,"bufferView":2,"count":34254,"type":"VEC3","byteOffset":12},{"componentType":5126,"bufferView":2,"count":34254,"type":"VEC2","byteOffset":24},{"componentType":5126,"max":[0.00933453906327486,0.01160650234669447,-0.013016843236982822],"bufferView":3,"count":64,"type":"VEC3","min":[-0.09000421315431595,0.00018215466116089374,-0.013300279155373573],"byteOffset":0},{"componentType":5126,"bufferView":3,"count":64,"type":"VEC3","byteOffset":12},{"componentType":5126,"bufferView":3,"count":64,"type":"VEC2","byteOffset":24},{"componentType":5126,"max":[-0.005559664685279131,0.005744638852775097,0.0072101098485291],"bufferView":4,"count":37808,"type":"VEC3","min":[-0.095925472676754,0.0003125295042991638,-0.004997439216822386],"byteOffset":0},{"componentType":5126,"bufferView":4,"count":37808,"type":"VEC3","byteOffset":12},{"componentType":5126,"bufferView":4,"count":37808,"type":"VEC2","byteOffset":24},{"componentType":5126,"max":[0.020965583622455597,0.015417772345244884,0.016502631828188896],"bufferView":5,"count":144,"type":"VEC3","min":[-0.08592445403337479,-0.004579843953251839,0.000593534205108881],"byteOffset":0},{"componentType":5126,"bufferView":5,"count":144,"type":"VEC3","byteOffset":12},{"componentType":5126,"bufferView":5,"count":144,"type":"VEC2","byteOffset":24}],"textures":[{"source":0,"sampler":0},{"source":1,"sampler":0}],"buffers":[{"byteLength":2792548,"uri":"buffer.bin"}],"bufferViews":[{"byteLength":4,"byteOffset":0,"buffer":0},{"byteLength":479904,"target":34963,"byteOffset":4,"buffer":0},{"byteLength":1096128,"byteStride":32,"target":34962,"byteOffset":479908,"buffer":0},{"byteLength":2048,"byteStride":32,"target":34962,"byteOffset":1576036,"buffer":0},{"byteLength":1209856,"byteStride":32,"target":34962,"byteOffset":1578084,"buffer":0},{"byteLength":4608,"byteStride":32,"target":34962,"byteOffset":2787940,"buffer":0}],"samplers":[{"magFilter":9729,"minFilter":9987}],"scene":0,"nodes":[{"children":[1],"name":"RootNode"},{"rotation":[-0.70710676908493,0,0,0.70710676908493],"scale":[2.53999996185303,2.53999996185303,2.53999996185303],"children":[2,3,4,5],"name":"desirefx.me_001","translation":[-0.95540326833725,0.0163256507366896,0.203487619757652]},{"rotation":[0.707106828689575,0,0,0.707106709480286],"scale":[10,10,10],"name":"desirefx.me_002","translation":[0.376143038272858,0.0801132395863533,-0.00642742123454809],"mesh":0},{"rotation":[0.707106828689575,0,0,0.707106709480286],"scale":[10,10,10],"name":"desirefx.me_003","translation":[0.376143038272858,0.0801132395863533,-0.00642742123454809],"mesh":1},{"rotation":[0.707106828689575,0,0,0.707106709480286],"scale":[10,10,10],"name":"desirefx.me_004","translation":[0.376143038272858,0.0801132395863533,-0.00642742123454809],"mesh":2},{"rotation":[0.707106828689575,0,0,0.707106709480286],"scale":[10,10,10],"name":"desirefx.me_005","translation":[0.376143038272858,0.0801132395863533,-0.00642742123454809],"mesh":3},{"children":[0],"name":"Pivot","translation":[0.9554032399505374,0.4215200395745398,-0.2034875965455223]}],"materials":[{"pbrMetallicRoughness":{"roughnessFactor":0.65,"baseColorFactor":[1,1,1,1],"baseColorTexture":{"index":1},"metallicFactor":0},"extensions":{"KHR_materials_specular":{"specularFactor":0.3}},"name":"Apartment"},{"pbrMetallicRoughness":{"roughnessFactor":0.16,"baseColorFactor":[0.24680041960155044,0.36360389792055325,0.49361620131107364,0.48],"metallicFactor":0.26},"extensions":{"KHR_materials_specular":{"specularFactor":0.3}},"name":"Glass","alphaMode":"BLEND"},{"pbrMetallicRoughness":{"roughnessFactor":0.49,"baseColorFactor":[1,1,1,1],"baseColorTexture":{"index":0},"metallicFactor":0},"extensions":{"KHR_materials_specular":{"specularFactor":0.3}},"name":"Books"},{"pbrMetallicRoughness":{"roughnessFactor":0.301511287689209,"baseColorFactor":[1,1,1,1],"metallicFactor":0},"emissiveFactor":[0.8355277914608409,0.744530171266715,0.6870308121546249],"extensions":{"KHR_materials_specular":{"specularFactor":0.3}},"name":"Emission"}],"animations":[{"samplers":[],"channels":[],"name":"Take 001"}],"scenes":[{"nodes":[6],"name":"Root Scene"}],"asset":{"generator":"CG美术之家","source":"https://www.cgmszj.com/model/104241.html","version":"2.0"},"meshes":[{"primitives":[{"mode":4,"indices":1,"material":0,"attributes":{"POSITION":5,"TEXCOORD_0":7,"NORMAL":6}}],"name":"desirefx.me_002"},{"primitives":[{"mode":4,"indices":2,"material":1,"attributes":{"POSITION":8,"TEXCOORD_0":10,"NORMAL":9}}],"name":"desirefx.me_003"},{"primitives":[{"mode":4,"indices":3,"material":2,"attributes":{"POSITION":11,"TEXCOORD_0":13,"NORMAL":12}}],"name":"desirefx.me_004"},{"primitives":[{"mode":4,"indices":4,"material":3,"attributes":{"POSITION":14,"TEXCOORD_0":16,"NORMAL":15}}],"name":"desirefx.me_005"}]}